<svg version="1.1" id="Layer_1" xmlns="http://www.w3.org/2000/svg" xmlns:xlink="http://www.w3.org/1999/xlink" x="0px" y="0px"
	 width="100%" viewBox="0 0 2000 1500" enable-background="new 0 0 2000 1500" xml:space="preserve">
<path fill="#0023FF" opacity="1.000000" stroke="none" 
	d="
M1362.000000,1501.000000 
	C908.000122,1501.000000 454.500275,1501.000000 1.000304,1501.000000 
	C1.000203,1001.000305 1.000203,501.000580 1.000101,1.000640 
	C667.666199,1.000426 1334.332397,1.000426 2000.998901,1.000213 
	C2000.999268,500.999359 2000.999268,1000.998718 2000.999634,1500.999023 
	C1788.166626,1501.000000 1575.333374,1501.000000 1362.000000,1501.000000 
M1207.854370,638.864075 
	C1207.724121,638.744690 1207.593750,638.625305 1207.541260,637.741089 
	C1218.060181,598.212097 1228.503052,558.662659 1239.115967,519.158936 
	C1254.475220,461.988525 1270.613403,405.064331 1292.756592,350.033783 
	C1294.291748,346.218567 1296.101318,345.567963 1299.730103,346.112915 
	C1329.380127,350.565613 1358.660522,356.540649 1387.303589,365.604645 
	C1396.129761,368.397644 1405.333862,370.396790 1414.516846,371.545990 
	C1423.171021,372.629028 1426.292725,367.743713 1423.380249,359.464172 
	C1423.105103,358.682098 1422.740234,357.930267 1422.395508,357.174164 
	C1414.739624,340.377258 1402.458374,328.117340 1385.517944,320.940186 
	C1374.212280,316.150269 1362.592773,312.069031 1350.993896,308.013031 
	C1341.522339,304.700897 1331.873413,301.895752 1321.769531,298.696930 
	C1333.251831,288.954895 1344.782104,280.705231 1358.542114,275.850769 
	C1363.349487,274.154785 1368.033691,271.787598 1372.312866,269.015045 
	C1376.020020,266.613190 1378.755371,262.955902 1377.238892,257.998291 
	C1375.684937,252.918243 1371.335938,250.929276 1366.728516,251.164352 
	C1358.316772,251.593567 1349.673462,251.912048 1341.621582,254.098724 
	C1321.552734,259.548859 1305.850586,272.263794 1292.045044,287.237061 
	C1288.503052,291.078674 1285.269043,291.342560 1280.774536,290.792328 
	C1256.156982,287.778625 1231.575684,284.136963 1206.863892,282.293610 
	C1156.385620,278.528198 1105.984009,280.304962 1055.754028,286.836700 
	C1012.509094,292.460144 970.380127,302.399078 929.990723,319.035339 
	C895.899048,333.077515 864.579224,351.518585 840.493896,380.066681 
	C814.718872,410.617645 803.246643,445.666992 810.015442,485.782471 
	C810.704834,489.868195 811.769958,493.913940 812.144165,498.025269 
	C813.586121,513.866516 817.857178,528.841858 826.512024,542.214661 
	C845.351013,571.323120 871.836853,591.611938 902.920471,605.963806 
	C911.544373,609.945618 921.253418,611.658691 930.570923,613.987610 
	C932.434570,614.453430 934.781128,612.987122 936.905029,612.411682 
	C936.115479,610.199951 935.925415,607.372314 934.414612,605.901367 
	C930.998657,602.575867 927.179688,599.501648 923.083984,597.066040 
	C907.368042,587.720398 890.812073,579.628784 875.829895,569.249878 
	C858.859985,557.494019 846.435181,541.342285 843.065613,520.326660 
	C838.380249,491.104523 847.402893,465.370697 865.826111,442.778900 
	C883.693970,420.868011 907.113464,406.253326 932.151123,394.119385 
	C974.467163,373.611908 1019.651245,362.557098 1065.784912,355.187378 
	C1126.126587,345.547943 1186.878174,341.181671 1248.009521,342.755280 
	C1249.122925,342.783936 1250.234253,342.895508 1251.796875,342.997864 
	C1251.302612,344.078522 1251.025391,344.818115 1250.644043,345.499390 
	C1228.392090,385.246460 1210.881104,427.152710 1196.179810,470.115051 
	C1175.140869,531.598938 1155.395752,593.526245 1135.269897,655.320129 
	C1133.894409,659.543640 1131.936768,661.738525 1127.596191,663.119629 
	C1050.851562,687.538025 976.934021,718.579468 906.702576,758.148743 
	C821.181091,806.332581 744.314514,865.546326 677.876038,938.010254 
	C647.385132,971.266479 619.727417,1006.514709 599.579468,1047.243774 
	C581.768433,1083.248901 573.722412,1120.999390 579.112793,1160.938965 
	C583.668518,1194.694458 601.013916,1220.177856 631.861816,1235.587158 
	C658.485168,1248.886230 686.856812,1253.149658 716.314697,1250.495605 
	C750.191162,1247.443604 781.486267,1235.951904 811.113647,1219.892090 
	C872.414246,1186.664062 924.899719,1142.376343 971.252625,1090.588623 
	C1025.678589,1029.781494 1069.343628,961.680725 1107.075195,889.586731 
	C1140.359375,825.990417 1168.366333,760.080872 1192.897827,692.675476 
	C1196.730713,682.144165 1203.086548,674.025879 1212.469116,668.294678 
	C1217.554932,665.188171 1222.884277,662.299683 1228.430420,660.159180 
	C1250.565552,651.616150 1273.740723,647.021423 1297.011963,642.945801 
	C1310.249512,640.627563 1323.537964,640.164185 1336.578125,644.175598 
	C1343.839600,646.409363 1347.910767,643.688965 1347.960449,636.084534 
	C1347.996582,630.557800 1344.386597,625.481567 1338.642334,623.951050 
	C1334.655151,622.888611 1330.477051,622.380066 1326.349854,622.032043 
	C1301.632202,619.947510 1277.565430,624.559753 1253.557495,629.449402 
	C1238.412720,632.534058 1223.337769,635.962402 1207.854370,638.864075 
z"/>
<path fill="#F7F9FC" opacity="1.000000" stroke="none" 
	d="
M1208.231567,639.236572 
	C1223.337769,635.962402 1238.412720,632.534058 1253.557495,629.449402 
	C1277.565430,624.559753 1301.632202,619.947510 1326.349854,622.032043 
	C1330.477051,622.380066 1334.655151,622.888611 1338.642334,623.951050 
	C1344.386597,625.481567 1347.996582,630.557800 1347.960449,636.084534 
	C1347.910767,643.688965 1343.839600,646.409363 1336.578125,644.175598 
	C1323.537964,640.164185 1310.249512,640.627563 1297.011963,642.945801 
	C1273.740723,647.021423 1250.565552,651.616150 1228.430420,660.159180 
	C1222.884277,662.299683 1217.554932,665.188171 1212.469116,668.294678 
	C1203.086548,674.025879 1196.730713,682.144165 1192.897827,692.675476 
	C1168.366333,760.080872 1140.359375,825.990417 1107.075195,889.586731 
	C1069.343628,961.680725 1025.678589,1029.781494 971.252625,1090.588623 
	C924.899719,1142.376343 872.414246,1186.664062 811.113647,1219.892090 
	C781.486267,1235.951904 750.191162,1247.443604 716.314697,1250.495605 
	C686.856812,1253.149658 658.485168,1248.886230 631.861816,1235.587158 
	C601.013916,1220.177856 583.668518,1194.694458 579.112793,1160.938965 
	C573.722412,1120.999390 581.768433,1083.248901 599.579468,1047.243774 
	C619.727417,1006.514709 647.385132,971.266479 677.876038,938.010254 
	C744.314514,865.546326 821.181091,806.332581 906.702576,758.148743 
	C976.934021,718.579468 1050.851562,687.538025 1127.596191,663.119629 
	C1131.936768,661.738525 1133.894409,659.543640 1135.269897,655.320129 
	C1155.395752,593.526245 1175.140869,531.598938 1196.179810,470.115051 
	C1210.881104,427.152710 1228.392090,385.246460 1250.644043,345.499390 
	C1251.025391,344.818115 1251.302612,344.078522 1251.796875,342.997864 
	C1250.234253,342.895508 1249.122925,342.783936 1248.009521,342.755280 
	C1186.878174,341.181671 1126.126587,345.547943 1065.784912,355.187378 
	C1019.651245,362.557098 974.467163,373.611908 932.151123,394.119385 
	C907.113464,406.253326 883.693970,420.868011 865.826111,442.778900 
	C847.402893,465.370697 838.380249,491.104523 843.065613,520.326660 
	C846.435181,541.342285 858.859985,557.494019 875.829895,569.249878 
	C890.812073,579.628784 907.368042,587.720398 923.083984,597.066040 
	C927.179688,599.501648 930.998657,602.575867 934.414612,605.901367 
	C935.925415,607.372314 936.115479,610.199951 936.905029,612.411682 
	C934.781128,612.987122 932.434570,614.453430 930.570923,613.987610 
	C921.253418,611.658691 911.544373,609.945618 902.920471,605.963806 
	C871.836853,591.611938 845.351013,571.323120 826.512024,542.214661 
	C817.857178,528.841858 813.586121,513.866516 812.144165,498.025269 
	C811.769958,493.913940 810.704834,489.868195 810.015442,485.782471 
	C803.246643,445.666992 814.718872,410.617645 840.493896,380.066681 
	C864.579224,351.518585 895.899048,333.077515 929.990723,319.035339 
	C970.380127,302.399078 1012.509094,292.460144 1055.754028,286.836700 
	C1105.984009,280.304962 1156.385620,278.528198 1206.863892,282.293610 
	C1231.575684,284.136963 1256.156982,287.778625 1280.774536,290.792328 
	C1285.269043,291.342560 1288.503052,291.078674 1292.045044,287.237061 
	C1305.850586,272.263794 1321.552734,259.548859 1341.621582,254.098724 
	C1349.673462,251.912048 1358.316772,251.593567 1366.728516,251.164352 
	C1371.335938,250.929276 1375.684937,252.918243 1377.238892,257.998291 
	C1378.755371,262.955902 1376.020020,266.613190 1372.312866,269.015045 
	C1368.033691,271.787598 1363.349487,274.154785 1358.542114,275.850769 
	C1344.782104,280.705231 1333.251831,288.954895 1321.769531,298.696930 
	C1331.873413,301.895752 1341.522339,304.700897 1350.993896,308.013031 
	C1362.592773,312.069031 1374.212280,316.150269 1385.517944,320.940186 
	C1402.458374,328.117340 1414.739624,340.377258 1422.395508,357.174164 
	C1422.740234,357.930267 1423.105103,358.682098 1423.380249,359.464172 
	C1426.292725,367.743713 1423.171021,372.629028 1414.516846,371.545990 
	C1405.333862,370.396790 1396.129761,368.397644 1387.303589,365.604645 
	C1358.660522,356.540649 1329.380127,350.565613 1299.730103,346.112915 
	C1296.101318,345.567963 1294.291748,346.218567 1292.756592,350.033783 
	C1270.613403,405.064331 1254.475220,461.988525 1239.115967,519.158936 
	C1228.503052,558.662659 1218.060181,598.212097 1207.402344,638.321411 
	C1207.586182,639.013306 1207.908813,639.124939 1208.231567,639.236572 
M784.785828,891.286865 
	C769.003662,908.899414 752.769958,926.131653 737.540955,944.210144 
	C712.171936,974.325745 689.319824,1006.243225 672.221924,1041.928223 
	C655.331177,1077.180664 645.850647,1113.852661 653.103210,1153.156128 
	C658.291565,1181.273071 675.447815,1202.244385 703.488342,1208.023560 
	C729.890259,1213.465088 755.139709,1208.669556 779.548889,1198.348389 
	C813.775330,1183.876221 841.731873,1160.637207 867.455200,1134.466553 
	C898.264526,1103.121460 924.725830,1068.205078 949.926636,1032.333374 
	C1023.961670,926.949341 1079.209229,811.965332 1123.532349,691.435486 
	C1123.830444,690.625000 1123.755005,689.677124 1123.872192,688.631409 
	C1122.647461,688.892639 1121.792969,688.960327 1121.025635,689.255005 
	C1090.783081,700.871521 1060.062866,711.396851 1030.402954,724.349976 
	C938.409973,764.525269 856.044434,819.186951 784.785828,891.286865 
z"/>
<path fill="#0023FF" opacity="1.000000" stroke="none" 
	d="
M785.035278,891.036194 
	C856.044434,819.186951 938.409973,764.525269 1030.402954,724.349976 
	C1060.062866,711.396851 1090.783081,700.871521 1121.025635,689.255005 
	C1121.792969,688.960327 1122.647461,688.892639 1123.872192,688.631409 
	C1123.755005,689.677124 1123.830444,690.625000 1123.532349,691.435486 
	C1079.209229,811.965332 1023.961670,926.949341 949.926636,1032.333374 
	C924.725830,1068.205078 898.264526,1103.121460 867.455200,1134.466553 
	C841.731873,1160.637207 813.775330,1183.876221 779.548889,1198.348389 
	C755.139709,1208.669556 729.890259,1213.465088 703.488342,1208.023560 
	C675.447815,1202.244385 658.291565,1181.273071 653.103210,1153.156128 
	C645.850647,1113.852661 655.331177,1077.180664 672.221924,1041.928223 
	C689.319824,1006.243225 712.171936,974.325745 737.540955,944.210144 
	C752.769958,926.131653 769.003662,908.899414 785.035278,891.036194 
z"/>
<path fill="#0023FF" opacity="1.000000" stroke="none" 
	d="
M1208.042969,639.050293 
	C1207.908813,639.124939 1207.586182,639.013306 1207.363525,638.703857 
	C1207.593750,638.625305 1207.724121,638.744690 1208.042969,639.050293 
z"/>
</svg>